<svg xmlns="http://www.w3.org/2000/svg" width="74.9" height="117.5" viewBox="0 0 74.9 117.5">
  <defs>
    <style>
      .\33 5c515c3-c421-4af8-abb9-cc3ff89172bf {
        fill: #004048;
      }
    </style>
  </defs>
  <title>Asset 1</title>
  <g id="621815ac-a7d5-453d-8c83-eaa311eac738" data-name="Layer 2">
    <g id="8ff1c79b-f213-4081-93c9-6220333907d7" data-name="Layer 1">
      <path class="35c515c3-c421-4af8-abb9-cc3ff89172bf" d="M74.1,112.9l-8.7-8.4a13.1,13.1,0,0,0,9-12.4V34.4A13.1,13.1,0,0,0,61.3,21.3H53.1L55.7,5.4h5a3.4,3.4,0,0,1,3.5,3.2,2.7,2.7,0,0,0,5.4,0A8.8,8.8,0,0,0,60.7,0h-47A8.8,8.8,0,0,0,4.8,8.6a2.7,2.7,0,0,0,5.4,0,3.4,3.4,0,0,1,3.5-3.2h5.6l2.6,16.1H13.1A13.1,13.1,0,0,0,0,34.6V92.3a13.1,13.1,0,0,0,9.6,12.6l-8.3,8a2.7,2.7,0,0,0,0,3.8,2.7,2.7,0,0,0,1.9.8,2.8,2.8,0,0,0,1.9-.7l11.7-11.4,41.6-.2,12,11.6a2.6,2.6,0,0,0,1.9.7,2.7,2.7,0,0,0,1.9-.8A2.7,2.7,0,0,0,74.1,112.9ZM25.3,5.4H49.6L47,21.4H28ZM7.8,46.4a6.6,6.6,0,0,1,6.6-6.7H60a6.6,6.6,0,0,1,6.6,6.7V64.6A6.5,6.5,0,0,1,60,71.2H14.4a6.5,6.5,0,0,1-6.6-6.6ZM16.1,94a6.4,6.4,0,0,1-6.4-6.3,6.4,6.4,0,0,1,6.4-6.4,6.4,6.4,0,0,1,6.3,6.4A6.3,6.3,0,0,1,16.1,94ZM52,87.7A6.4,6.4,0,1,1,58.3,94,6.3,6.3,0,0,1,52,87.7Z"/>
    </g>
  </g>
</svg>
