<svg xmlns="http://www.w3.org/2000/svg" width="78.5" height="94.7" viewBox="0 0 78.5 94.7">
  <defs>
    <style>
      .\31 3dc94ec-817a-4029-bafc-1b80e5f21070 {
        fill: #004048;
      }
    </style>
  </defs>
  <title>busAsset 1</title>
  <g id="a22e2d2a-8210-48fb-b6ea-d074c35358b8" data-name="Layer 2">
    <g id="ad294931-087e-4919-b050-e7e5fe7173e0" data-name="Layer 1">
      <path class="13dc94ec-817a-4029-bafc-1b80e5f21070" d="M64.3,0H14.2A14.3,14.3,0,0,0,0,14.2V83H6v2.8a9,9,0,0,0,18,0V83H54.5v2.8a9,9,0,0,0,17.9,0V83h6.1V14.2A14.3,14.3,0,0,0,64.3,0Zm-40,4H54.2a3,3,0,0,1,2.9,3.1,3,3,0,0,1-2.9,3.2H24.3a3,3,0,0,1-2.9-3.2A3,3,0,0,1,24.3,4Zm-10,64.7a6.9,6.9,0,0,1,0-13.8,6.9,6.9,0,0,1,0,13.8Zm2.6-20.6a7.2,7.2,0,0,1-7.2-7.2V21.1a7.2,7.2,0,0,1,7.2-7.2H61.6a7.2,7.2,0,0,1,7.2,7.2V40.9a7.2,7.2,0,0,1-7.2,7.2ZM64.2,68.7a6.9,6.9,0,1,1,6.9-6.9A6.9,6.9,0,0,1,64.2,68.7Z"/>
    </g>
  </g>
</svg>
