<?xml version="1.0" ?><!DOCTYPE svg  PUBLIC '-//W3C//DTD SVG 1.1//EN'  'http://www.w3.org/Graphics/SVG/1.1/DTD/svg11.dtd'><svg enable-background="new 0 0 256 256" id="Layer_1" version="1.1" viewBox="0 0 256 256" xml:space="preserve" xmlns="http://www.w3.org/2000/svg" xmlns:xlink="http://www.w3.org/1999/xlink"><g><circle cx="128" cy="128" fill="#F3756F" r="127"/><g><path d="M74,199.4V212c0,1.6,1.1,2.9,2.3,2.9h10.1c1.3,0,2.3-1.3,2.3-2.9v-12.6H74z" fill="#313131"/><path d="M167.2,199.4V212c0,1.6,1.1,2.9,2.3,2.9h10.1c1.3,0,2.3-1.3,2.3-2.9v-12.6H167.2z" fill="#313131"/></g><path d="M70,58.1c0,0-23.8,6-22.8,15.9h8.8c0,0-7.6-12.1,15.5-8.5l7.6-7.4H70z" fill="#527F99"/><path d="M52.2,68.5c-3.8,0-6.9,3.1-6.9,6.9v18.2c0,3.8,3.1,6.9,6.9,6.9s6.9-3.1,6.9-6.9V75.4   C59.1,71.6,56,68.5,52.2,68.5z" fill="#36505F"/><path d="M186,58.1c0,0,23.8,6,22.8,15.9h-8.8c0,0,7.6-12.1-15.5-8.5l-7.6-7.4H186z" fill="#527F99"/><path d="M203.8,68.5c3.8,0,6.9,3.1,6.9,6.9v18.2c0,3.8-3.1,6.9-6.9,6.9c-3.8,0-6.9-3.1-6.9-6.9V75.4   C196.9,71.6,200,68.5,203.8,68.5z" fill="#36505F"/><path d="M180.4,52.8c-1.9-3.3-5.6-6-10.4-7.1c-27.7-6.1-56.5-6.1-84.1,0c-4.8,1.1-8.4,3.8-10.4,7.1   c-5.3,0.4-9.5,4.7-9.5,9.8c0,41.9,0,83.7,0,125.6c0,5.4,4.5,11.3,10.2,12.7c33.9,8.6,69.6,8.6,103.5,0c5.6-1.5,10.2-7.3,10.2-12.7   c0-41.9,0-83.7,0-125.6C189.9,57.5,185.7,53.3,180.4,52.8z" fill="#CBD3D4"/><path d="M177.1,132.7c-32.2,8.3-66,8.3-98.2,0c-3.2-0.8-6-3.2-7.8-6.1c0,4.6,0,9.5,0,14.9c0,5.2,4.1,10.9,9.3,12.3   c31.1,8.3,63.9,8.3,95,0c5.2-1.4,9.3-7,9.3-12.3v-14.9C183.1,129.5,180.3,131.9,177.1,132.7z" fill="#050505"/><g><path d="M123.7,46.8c-0.6,0-1.1,0.5-1.1,1.1v9.9c0,0.6,0.5,1.1,1.1,1.1c0.6,0,1.1-0.5,1.1-1.1v-9.9    C124.8,47.3,124.3,46.8,123.7,46.8z" fill="#527F99"/><path d="M128,46.8c-0.6,0-1.1,0.5-1.1,1.1v9.9c0,0.6,0.5,1.1,1.1,1.1c0.6,0,1.1-0.5,1.1-1.1v-9.9    C129.1,47.3,128.6,46.8,128,46.8z" fill="#527F99"/><path d="M132.3,46.8c-0.6,0-1.1,0.5-1.1,1.1v9.9c0,0.6,0.5,1.1,1.1,1.1c0.6,0,1.1-0.5,1.1-1.1v-9.9    C133.4,47.3,132.9,46.8,132.3,46.8z" fill="#527F99"/></g><path d="M184.8,75c0-5.2-4.3-9.5-9.5-9.5H80.7c-5.3,0-9.5,4.3-9.5,9.5c0,2.2,0,4.4,0,6.5h113.7V75z" fill="#282828"/><path d="M184.8,81.6H71.2c0,4.1,0,8.1,0,12.2c0,11.8,0,21.5,0,32.9c1.7,2.9,4.6,5.2,7.8,6.1c32.2,8.3,66,8.3,98.2,0   c3.2-0.8,6-3.2,7.8-6.1V82.4h0V81.6z" fill="#333333"/><path d="M136,83.6h-16c-1.3,0-2.3,1-2.3,2.3c0,1.3,1,2.3,2.3,2.3h16c1.3,0,2.3-1,2.3-2.3   C138.3,84.6,137.3,83.6,136,83.6z" fill="#141616"/><rect fill="#141616" height="17.5" width="1.1" x="127.4" y="66"/><rect fill="#141616" height="0.7" width="34.4" x="100" y="127.6"/><circle cx="150.9" cy="147.8" fill="#282828" r="3.4"/><polygon fill="#141616" points="149.7,149.7 136.6,133.9 137,134.2 115.9,128.4 116.1,127.6 137.5,132.5 137.7,132.5 137.9,132.7    153.1,146.4  "/><path d="M69.5,177.1l5.1,6c1.2,1.4,2.9,2.2,4.8,2.2H100l-6.5-6.4c-1.2-1.2-2.8-1.8-4.4-1.8H69.5z" fill="#2E4555"/><circle cx="79.9" cy="181.2" fill="#BF4028" r="3.3"/><circle cx="88.1" cy="181.2" fill="#FFFFFF" r="3.3"/><path d="M186.5,177.1l-5.1,6c-1.2,1.4-2.9,2.2-4.8,2.2H156l6.5-6.4c1.2-1.2,2.8-1.8,4.4-1.8H186.5z" fill="#2E4555"/><circle cx="176.1" cy="181.2" fill="#BF4028" r="3.3"/><circle cx="167.9" cy="181.2" fill="#FFFFFF" r="3.3"/><path d="M158.6,196.6c-19.9,6-41.2,6-61.1,0c-1.3-0.4-2.3-1.8-2.3-3.1l0,0c0-1.3,1.1-2.3,2.4-2.4   c20.3,0,40.7,0,61,0c1.3,0,2.4,1.1,2.4,2.4l0,0C160.9,194.8,159.8,196.2,158.6,196.6z" fill="#2C424F"/><g><rect fill="#527F99" height="1.4" width="36.8" x="109.6" y="192.8"/><rect fill="#527F99" height="1.4" width="36.8" x="109.6" y="195.6"/></g></g></svg>