<svg xmlns="http://www.w3.org/2000/svg" width="230.6" height="65" viewBox="0 0 230.6 65">
  <defs>
    <style>
      .c01295bd-8969-45d8-a237-f5c6742ebd11 {
        fill: #004048;
      }
    </style>
  </defs>
  <title>ferryAsset 1</title>
  <g id="0e7738fb-2947-464c-91d5-9ceaf6485829" data-name="Layer 2">
    <g id="0b8f64ee-06e7-474b-9392-bef448306c6b" data-name="Layer 1">
      <g>
        <path class="c01295bd-8969-45d8-a237-f5c6742ebd11" d="M226.4,26.2h-25l-7.8-10.6C189.8,10.4,183.7,0,175.4,0H52.9C42.3,0,40.6,11,38.5,16.6c-.7,1.8-2.4,5.6-4.1,9.6H26.3c-5.8,0-10.7,3.6-13.3,10.4L5.4,52.1H7.2A7.6,7.6,0,0,0,11.3,51a14.1,14.1,0,0,1,7.2-2,13,13,0,0,1,7,2,7.7,7.7,0,0,0,4.2,1.2A8.2,8.2,0,0,0,33.8,51a13.4,13.4,0,0,1,7.1-2,13,13,0,0,1,7,2,8.1,8.1,0,0,0,4.3,1.2A7.7,7.7,0,0,0,56.4,51a14.1,14.1,0,0,1,7.2-2,13,13,0,0,1,7,2,8.1,8.1,0,0,0,4.3,1.2A7.7,7.7,0,0,0,79.1,51a14.1,14.1,0,0,1,7.2-2,13,13,0,0,1,7,2,7.8,7.8,0,0,0,4.3,1.2,7.7,7.7,0,0,0,4.2-1.2,14.1,14.1,0,0,1,7.2-2,13,13,0,0,1,7,2,7.7,7.7,0,0,0,4.2,1.2,7.5,7.5,0,0,0,4-1.2,14.1,14.1,0,0,1,7.2-2,13,13,0,0,1,7,2,7.8,7.8,0,0,0,4.3,1.2,8,8,0,0,0,4.2-1.2,14.1,14.1,0,0,1,7.2-2,13,13,0,0,1,7,2,7.8,7.8,0,0,0,4.3,1.2,8.3,8.3,0,0,0,4.2-1.2,14.1,14.1,0,0,1,7.2-2,13.6,13.6,0,0,1,7,2,7.8,7.8,0,0,0,4.3,1.2,8.3,8.3,0,0,0,4.2-1.2,14.1,14.1,0,0,1,7.2-2,13.6,13.6,0,0,1,7,2,7.5,7.5,0,0,0,4.2,1.2,7,7,0,0,0,3.8-1.1l11.1-14.5C232.1,27.6,232.2,26.2,226.4,26.2Zm-153.1,0H44.9C47,20.6,49.1,8.1,59.7,8.1H73.3Zm37.5,0H81.4V8.1h29.4Zm37.5,0H118.9V8.1h29.4Zm8.1,0V8.1h12.2c8.4,0,17.2,12.9,21,18.1Z"/>
        <path class="c01295bd-8969-45d8-a237-f5c6742ebd11" d="M203.7,56.1h-8.2a16.1,16.1,0,0,0-3.2,1.4,9.6,9.6,0,0,1-3.2,1.2h-2a8.7,8.7,0,0,1-3.3-1.2,25.1,25.1,0,0,0-2.8-1.3h-1.6c-.1,0-.2,0-.2-.1h-6.4a16.1,16.1,0,0,0-3.2,1.4,9.6,9.6,0,0,1-3.2,1.2h-2a8.7,8.7,0,0,1-3.3-1.2A18,18,0,0,0,158,56h-1.3c-.1,0-.2,0-.2-.1h-6.4a16.1,16.1,0,0,0-3.2,1.4,8.8,8.8,0,0,1-3.2,1.2h-2a8.7,8.7,0,0,1-3.3-1.2l-2.7-1.3h-8.3a16.1,16.1,0,0,0-3.2,1.4,9.6,9.6,0,0,1-3.2,1.2h-1.8a8.8,8.8,0,0,1-3.2-1.2l-2.7-1.3H105a16.1,16.1,0,0,0-3.2,1.4,8.8,8.8,0,0,1-3.2,1.2h-2a8.7,8.7,0,0,1-3.3-1.2l-2.7-1.3H82.3a16.1,16.1,0,0,0-3.2,1.4,8.8,8.8,0,0,1-3.2,1.2h-2a8.7,8.7,0,0,1-3.3-1.2l-2.7-1.3H65.5c-.1,0-.2,0-.2-.1H59.6a16.1,16.1,0,0,0-3.2,1.4,8.8,8.8,0,0,1-3.2,1.2h-2a9.3,9.3,0,0,1-3.3-1.2,22.9,22.9,0,0,0-2.7-1.3H36.9a15.1,15.1,0,0,0-3.1,1.4,10.1,10.1,0,0,1-3.3,1.2H28.8a8.7,8.7,0,0,1-3.3-1.2l-2.7-1.3H14.5a19.2,19.2,0,0,0-3.2,1.4,8.8,8.8,0,0,1-3.2,1.2h-2a9.3,9.3,0,0,1-3.3-1.2l-.2.5L0,63.1A13.6,13.6,0,0,0,7.2,65a15.1,15.1,0,0,0,7.1-1.9,8.3,8.3,0,0,1,4.2-1.3,7.3,7.3,0,0,1,4,1.2,13.1,13.1,0,0,0,7.1,2h.2a13.9,13.9,0,0,0,6.9-1.9,8.3,8.3,0,0,1,4.2-1.3,7.3,7.3,0,0,1,4,1.2,13.9,13.9,0,0,0,7.3,2,15.2,15.2,0,0,0,7.2-1.9,8.3,8.3,0,0,1,4.2-1.3,7.5,7.5,0,0,1,4,1.2,13.6,13.6,0,0,0,7.3,2,15.2,15.2,0,0,0,7.2-1.9,8.3,8.3,0,0,1,4.2-1.3,7.5,7.5,0,0,1,4,1.2,13.6,13.6,0,0,0,7.3,2,15.2,15.2,0,0,0,7.2-1.9,8.3,8.3,0,0,1,4.2-1.3,7.8,7.8,0,0,1,4,1.2,13,13,0,0,0,7,2h.3a13.9,13.9,0,0,0,6.9-1.9,8.3,8.3,0,0,1,4.2-1.3c2.5,0,1.9.1,4,1.2a13.6,13.6,0,0,0,7.3,2,15.2,15.2,0,0,0,7.2-1.9,8,8,0,0,1,4.2-1.3,7.8,7.8,0,0,1,4,1.2,13.6,13.6,0,0,0,7.3,2,15.2,15.2,0,0,0,7.2-1.9,7.7,7.7,0,0,1,4.2-1.3,7.2,7.2,0,0,1,3.9,1.2,14.3,14.3,0,0,0,7.4,2,15.2,15.2,0,0,0,7.2-1.9,7.7,7.7,0,0,1,4.2-1.3,7.2,7.2,0,0,1,3.9,1.2l1.4.7,4-5.2h0a11.5,11.5,0,0,1-2.3-1A25.1,25.1,0,0,0,203.7,56.1Z"/>
      </g>
    </g>
  </g>
</svg>
