<?xml version="1.0" encoding="iso-8859-1"?>
<!-- Generator: Adobe Illustrator 18.0.0, SVG Export Plug-In . SVG Version: 6.00 Build 0)  -->
<!DOCTYPE svg PUBLIC "-//W3C//DTD SVG 1.1//EN" "http://www.w3.org/Graphics/SVG/1.1/DTD/svg11.dtd">
<svg version="1.1" id="Capa_1" xmlns="http://www.w3.org/2000/svg" xmlns:xlink="http://www.w3.org/1999/xlink" x="0px" y="0px"
	 viewBox="0 0 395 395" style="enable-background:new 0 0 395 395;" xml:space="preserve" width="100" height="100">
<g>
	<g>
		<rect x="167.17" y="87.645" width="24.053" height="13.279"/>
		<rect x="203.777" y="87.645" width="24.053" height="13.279"/>
		<path d="M308.265,288.609c-3.684,1.869-6.346,3.22-12.467,3.22c-6.07,0-8.739-1.329-12.375-3.174v-49.323l20.557-59.462
			c0.877-2.536,0.688-5.32-0.523-7.715c-1.211-2.395-3.34-4.197-5.903-4.994l-21.94-6.829V112.37c0-4.148-3.363-7.511-7.511-7.511
			H260.4l-7.314-31.61c-0.788-3.406-3.822-5.817-7.317-5.817h-21.581V56.754c0-3.959-3.21-7.169-7.169-7.169h-39.037
			c-3.959,0-7.169,3.21-7.169,7.169v10.677h-21.583c-3.496,0-6.529,2.412-7.317,5.817l-7.314,31.61h-7.702
			c-4.148,0-7.511,3.363-7.511,7.511v47.962l-21.94,6.829c-2.563,0.797-4.692,2.599-5.903,4.994
			c-1.211,2.395-1.399,5.179-0.522,7.715l20.557,59.462v49.32c-3.64,1.847-6.308,3.177-12.382,3.177
			c-6.118,0-8.779-1.35-12.461-3.219c-4.473-2.27-10.041-5.095-20.306-5.095v17.321c6.122,0,8.783,1.351,12.467,3.22
			c4.472,2.27,10.038,5.094,20.3,5.094c10.265,0,15.832-2.825,20.305-5.095c3.684-1.869,6.345-3.22,12.466-3.22
			c6.118,0,8.779,1.351,12.461,3.219c4.473,2.27,10.039,5.095,20.302,5.095c10.264,0,15.831-2.825,20.304-5.095
			c3.682-1.869,6.343-3.219,12.461-3.219c6.121,0,8.782,1.351,12.466,3.22c4.473,2.27,10.04,5.095,20.305,5.095
			c10.262,0,15.828-2.825,20.3-5.095c3.683-1.869,6.344-3.22,12.465-3.22c6.119,0,8.78,1.351,12.463,3.219
			c4.473,2.27,10.04,5.095,20.305,5.095c10.264,0,15.831-2.825,20.304-5.094c3.685-1.87,6.347-3.22,12.469-3.22v-17.321
			C318.306,283.515,312.738,286.339,308.265,288.609z M134.407,119.881h6.162c3.496,0,6.529-2.412,7.317-5.817l7.314-31.61h84.597
			l7.314,31.61c0.788,3.406,3.822,5.817,7.317,5.817h6.164v35.776l-60.146-18.72c-1.92-0.598-3.975-0.598-5.895,0l-60.145,18.72
			V119.881z M164.348,255.02v-5.771c0-0.697,0.563-1.262,1.261-1.262h13.368c0.696,0,1.262,0.565,1.262,1.262v5.771
			c0,0.697-0.565,1.262-1.262,1.262h-13.368C164.91,256.282,164.348,255.717,164.348,255.02z M169.815,232.768l6.602-15.462h42.167
			l6.599,15.462H169.815z M171.594,279.363c1.303-0.246,2.29-1.385,2.29-2.76v-5.527h47.231v5.527c0,1.375,0.985,2.515,2.288,2.76
			H171.594z M230.652,255.02c0,0.697-0.563,1.262-1.262,1.262h-13.368c-0.697,0-1.261-0.565-1.261-1.262v-5.771
			c0-0.697,0.564-1.262,1.261-1.262h13.368c0.698,0,1.262,0.565,1.262,1.262V255.02z M264.133,234.426
			c-0.36,1.042-0.544,2.137-0.544,3.24v41.696h-30.142c1.303-0.246,2.288-1.385,2.288-2.76v-5.8c4.069-0.99,7.094-4.646,7.096-9.018
			l0.006-13.917c0.001-1.447-0.337-2.877-0.986-4.169l-3.606-7.2h7.144c0.776,0,1.406-0.629,1.406-1.406v-6.467
			c0-0.776-0.629-1.406-1.406-1.406h-7.731c-0.588,0-1.115,0.367-1.318,0.918l-0.968,2.62l-6.898-16.165
			c-1.463-3.423-4.828-5.646-8.552-5.646h-44.84c-3.725,0-7.089,2.223-8.552,5.646l-6.898,16.167l-0.969-2.622
			c-0.204-0.552-0.73-0.918-1.318-0.918h-7.73c-0.776,0-1.406,0.629-1.406,1.406v6.467c0,0.776,0.629,1.406,1.406,1.406h7.143
			l-3.608,7.2c-0.649,1.292-0.985,2.722-0.984,4.169l0.005,13.917c0.001,4.373,3.027,8.03,7.098,9.019v5.8
			c0,1.375,0.985,2.515,2.288,2.76h-30.142v-41.696c0-1.103-0.184-2.198-0.544-3.24l-17.759-51.368l84.392-26.267l84.392,26.267
			L264.133,234.426z"/>
		<path d="M295.798,328.094c-6.121,0-8.783-1.351-12.466-3.22c-4.473-2.271-10.039-5.096-20.302-5.096
			c-10.265,0-15.832,2.826-20.305,5.096c-3.682,1.869-6.343,3.22-12.46,3.22c-6.121,0-8.783-1.351-12.466-3.22
			c-4.473-2.271-10.04-5.096-20.304-5.096c-10.262,0-15.829,2.825-20.301,5.096c-3.683,1.87-6.344,3.22-12.464,3.22
			c-6.119,0-8.779-1.351-12.461-3.22c-4.473-2.27-10.039-5.096-20.301-5.096c-10.264,0-15.831,2.825-20.304,5.096
			c-3.684,1.87-6.345,3.22-12.466,3.22c-6.118,0-8.778-1.351-12.46-3.22c-4.474-2.271-10.041-5.096-20.306-5.096v17.321
			c6.121,0,8.783,1.351,12.466,3.221c4.472,2.27,10.038,5.095,20.3,5.095c10.265,0,15.832-2.826,20.305-5.096
			c3.684-1.87,6.345-3.22,12.465-3.22c6.118,0,8.778,1.351,12.461,3.22c4.473,2.271,10.038,5.096,20.302,5.096
			c10.265,0,15.831-2.826,20.304-5.096c3.682-1.869,6.343-3.22,12.46-3.22c6.12,0,8.782,1.351,12.465,3.22
			c4.473,2.27,10.04,5.096,20.305,5.096c10.262,0,15.828-2.825,20.301-5.096c3.683-1.87,6.344-3.22,12.465-3.22
			c6.119,0,8.78,1.351,12.463,3.22c4.473,2.271,10.04,5.096,20.306,5.096c10.265,0,15.832-2.825,20.305-5.095
			c3.684-1.87,6.346-3.221,12.468-3.221v-17.321c-10.266,0-15.833,2.825-20.307,5.096
			C304.58,326.743,301.918,328.094,295.798,328.094z"/>
	</g>
	<path d="M313.001,0H81.999C36.785,0,0,36.784,0,81.998v230.993C0,358.211,36.785,395,81.999,395h231.002
		C358.216,395,395,358.211,395,312.991V81.998C395,36.784,358.216,0,313.001,0z M380,312.991C380,349.94,349.945,380,313.001,380
		H81.999C45.056,380,15,349.94,15,312.991V81.998C15,45.055,45.056,15,81.999,15h231.002C349.945,15,380,45.055,380,81.998V312.991z
		"/>
</g>
<g>
</g>
<g>
</g>
<g>
</g>
<g>
</g>
<g>
</g>
<g>
</g>
<g>
</g>
<g>
</g>
<g>
</g>
<g>
</g>
<g>
</g>
<g>
</g>
<g>
</g>
<g>
</g>
<g>
</g>
</svg>
