<svg xmlns="http://www.w3.org/2000/svg" width="120.9" height="120.9" viewBox="0 0 120.9 120.9">
  <defs>
    <style>
      .\39 29656fb-2579-4d48-8c5c-e89c0b161c28 {
        fill: #004048;
      }
    </style>
  </defs>
  <title>metroAsset 1</title>
  <g id="b6dbc32e-9242-4ef2-b818-56153304031e" data-name="Layer 2">
    <g id="a3cac2c2-fd12-4f3a-a0ed-2b8ae1c829c6" data-name="Layer 1">
      <path class="929656fb-2579-4d48-8c5c-e89c0b161c28" d="M34.9,92.7a6.3,6.3,0,0,0,6.3-6.3,6.4,6.4,0,1,0-6.3,6.3Z"/>
      <path class="929656fb-2579-4d48-8c5c-e89c0b161c28" d="M60.4,0A60.4,60.4,0,0,0,24.6,109.1L32,102A13,13,0,0,1,21.1,89.1V31.4A13.1,13.1,0,0,1,34.2,18.3H86.7A13.1,13.1,0,0,1,99.8,31.4V89.1A13,13,0,0,1,88.9,102l7.3,7.1A60.4,60.4,0,0,0,60.4,0Z"/>
      <path class="929656fb-2579-4d48-8c5c-e89c0b161c28" d="M81.3,102.2H39.6l-10.4,10a60.5,60.5,0,0,0,62.5,0Z"/>
      <path class="929656fb-2579-4d48-8c5c-e89c0b161c28" d="M84.8,80a6.4,6.4,0,0,0-6.3,6.4,6.4,6.4,0,0,0,12.7,0A6.4,6.4,0,0,0,84.8,80Z"/>
      <path class="929656fb-2579-4d48-8c5c-e89c0b161c28" d="M82,29.1H37.5a8.6,8.6,0,0,0-8.6,8.6V59.2a8.7,8.7,0,0,0,8.6,8.6H82a8.6,8.6,0,0,0,8.6-8.6V37.7A8.5,8.5,0,0,0,82,29.1Z"/>
    </g>
  </g>
</svg>
