<svg xmlns="http://www.w3.org/2000/svg" width="87.3" height="97" viewBox="0 0 87.3 97">
  <defs>
    <style>
      .\31 c87e69a-9670-489f-9900-6dacd4b54f51 {
        fill: #004048;
      }
    </style>
  </defs>
  <title>trainAsset 1</title>
  <g id="2b9b4481-e71a-49c4-ac6e-b62adfe9ac32" data-name="Layer 2">
    <g id="e9bb4d05-becb-4d34-be18-e2ccfcd09b27" data-name="Layer 1">
      <path class="1c87e69a-9670-489f-9900-6dacd4b54f51" d="M74.2,0H13.1A13.1,13.1,0,0,0,0,13.1V70.7A13.2,13.2,0,0,0,13.1,83.9h3L7.3,92.4a2.7,2.7,0,0,0-.1,3.8,2.4,2.4,0,0,0,1.9.8,2.6,2.6,0,0,0,1.9-.7L23.8,83.9H63.5L76.3,96.3a2.6,2.6,0,0,0,1.9.7,2.4,2.4,0,0,0,1.9-.8,2.7,2.7,0,0,0-.1-3.8l-8.8-8.5h3A13.2,13.2,0,0,0,87.3,70.7V13.1A13.1,13.1,0,0,0,74.2,0ZM43.7,3.1a4.9,4.9,0,0,1,4.9,5,5,5,0,1,1-4.9-5ZM7.8,40V23.4a8.6,8.6,0,0,1,8.6-8.6H38.7V48.6H16.4A8.6,8.6,0,0,1,7.8,40ZM22.4,74.4A6.4,6.4,0,0,1,16,68.1a6.4,6.4,0,0,1,6.4-6.4,6.4,6.4,0,0,1,6.3,6.4A6.3,6.3,0,0,1,22.4,74.4Zm26.8,3a3.1,3.1,0,0,1-3,3h-5a3,3,0,0,1-3-3v-5a2.9,2.9,0,0,1,3-3h5a3,3,0,0,1,3,3Zm17.1-3A6.3,6.3,0,0,1,60,68.1a6.4,6.4,0,0,1,6.3-6.4,6.4,6.4,0,0,1,6.4,6.4A6.4,6.4,0,0,1,66.3,74.4ZM78.8,40a8.5,8.5,0,0,1-8.6,8.6H48.7V14.8H70.2a8.5,8.5,0,0,1,8.6,8.6Z"/>
    </g>
  </g>
</svg>
