<svg xmlns="http://www.w3.org/2000/svg" width="78.5" height="115.8" viewBox="0 0 78.5 115.8">
  <defs>
    <style>
      .\37 136fbfb-4f7b-4a58-ae59-a900c7967614 {
        fill: #004048;
      }
    </style>
  </defs>
  <title>trolleyAsset 1</title>
  <g id="05b78705-5480-421a-a60f-f9ca87cdb2e2" data-name="Layer 2">
    <g id="3b23cf6d-5cb5-47fa-b2d0-f8dafe17279e" data-name="Layer 1">
      <g>
        <path class="7136fbfb-4f7b-4a58-ae59-a900c7967614" d="M64.3,21.1H14.2A14.2,14.2,0,0,0,0,35.3V104H6v2.8a9,9,0,0,0,18,0V104H54.5v2.8a9,9,0,1,0,17.9,0V104h6.1V35.3A14.2,14.2,0,0,0,64.3,21.1Zm-40,4H54.2a3.1,3.1,0,0,1,0,6.2H24.3a3.1,3.1,0,0,1,0-6.2Zm-10,64.6a6.9,6.9,0,0,1,0-13.8,6.9,6.9,0,0,1,0,13.8Zm2.6-20.6a7.2,7.2,0,0,1-7.2-7.2V42.2A7.2,7.2,0,0,1,16.9,35H61.6a7.2,7.2,0,0,1,7.2,7.2V61.9a7.2,7.2,0,0,1-7.2,7.2ZM64.2,89.7a6.9,6.9,0,1,1,6.9-6.9A6.9,6.9,0,0,1,64.2,89.7Z"/>
        <path class="7136fbfb-4f7b-4a58-ae59-a900c7967614" d="M56.5,23.4l3-20a3,3,0,1,0-6-.8L50.4,23.4Z"/>
        <path class="7136fbfb-4f7b-4a58-ae59-a900c7967614" d="M23.2,23.4h6.1L26.2,2.6a3,3,0,0,0-6,.8Z"/>
      </g>
    </g>
  </g>
</svg>
